<svg width="947" height="997" viewBox="0 0 947 997" fill="none" xmlns="http://www.w3.org/2000/svg">
<g clip-path="url(#clip0_72_20)" filter="url(#filter0_d_72_20)">
<rect width="939" height="989" transform="translate(4)" fill="#000001"/>
<g opacity="0.5" filter="url(#filter1_f_72_20)">
<path d="M-401.753 1503.81C-544.931 1298.3 -475.378 1002.37 -246.402 842.848C-17.4256 683.322 284.265 720.6 427.443 926.111C570.621 1131.62 501.068 1427.54 272.092 1587.07C43.1157 1746.6 -258.575 1709.32 -401.753 1503.81Z" fill="white"/>
</g>
<path d="M49.9377 214.002L49.9377 6029.07" stroke="#B3B3B3" stroke-opacity="0.3" stroke-width="1.35981"/>
<path d="M161.632 214.002L161.632 6029.07" stroke="#B3B3B3" stroke-opacity="0.3" stroke-width="1.35981"/>
<path d="M273.291 214.003L273.291 6029.08" stroke="#B3B3B3" stroke-opacity="0.3" stroke-width="1.35981"/>
<path d="M384.951 214L384.951 6029.07" stroke="#B3B3B3" stroke-opacity="0.3" stroke-width="1.35981"/>
<path d="M496.612 214.001L496.612 6029.07" stroke="#B3B3B3" stroke-opacity="0.3" stroke-width="1.35981"/>
<path d="M608.338 214.003L608.338 6029.08" stroke="#B3B3B3" stroke-opacity="0.3" stroke-width="1.35981"/>
<path d="M719.998 214L719.998 6029.07" stroke="#B3B3B3" stroke-opacity="0.3" stroke-width="1.35981"/>
<path d="M831.659 214.001L831.659 6029.07" stroke="#B3B3B3" stroke-opacity="0.3" stroke-width="1.35981"/>
<path d="M943.318 214.002L943.318 6029.07" stroke="#B3B3B3" stroke-opacity="0.3" stroke-width="1.35981"/>
<path d="M-3746.98 214.002L2841.78 214.002" stroke="#B3B3B3" stroke-opacity="0.3" stroke-width="1.35981"/>
<path d="M-3746.98 312.561L2841.78 312.561" stroke="#B3B3B3" stroke-opacity="0.3" stroke-width="1.35981"/>
<path d="M-3746.99 411.124L2841.77 411.124" stroke="#B3B3B3" stroke-opacity="0.3" stroke-width="1.35981"/>
<path d="M-3747 509.683L2841.77 509.683" stroke="#B3B3B3" stroke-opacity="0.3" stroke-width="1.35981"/>
<path d="M-3746.97 608.244L2841.79 608.244" stroke="#B3B3B3" stroke-opacity="0.3" stroke-width="1.35981"/>
<path d="M-3746.98 706.803L2841.78 706.803" stroke="#B3B3B3" stroke-opacity="0.3" stroke-width="1.35981"/>
<path d="M-3746.97 805.365L2841.79 805.365" stroke="#B3B3B3" stroke-opacity="0.3" stroke-width="1.35981"/>
<path d="M-3746.98 903.924L2841.78 903.924" stroke="#B3B3B3" stroke-opacity="0.3" stroke-width="1.35981"/>
<rect x="4" width="939" height="469" fill="url(#paint0_linear_72_20)"/>
</g>
<defs>
<filter id="filter0_d_72_20" x="0" y="0" width="947" height="997" filterUnits="userSpaceOnUse" color-interpolation-filters="sRGB">
<feFlood flood-opacity="0" result="BackgroundImageFix"/>
<feColorMatrix in="SourceAlpha" type="matrix" values="0 0 0 0 0 0 0 0 0 0 0 0 0 0 0 0 0 0 127 0" result="hardAlpha"/>
<feOffset dy="4"/>
<feGaussianBlur stdDeviation="2"/>
<feComposite in2="hardAlpha" operator="out"/>
<feColorMatrix type="matrix" values="0 0 0 0 0 0 0 0 0 0 0 0 0 0 0 0 0 0 0.25 0"/>
<feBlend mode="normal" in2="BackgroundImageFix" result="effect1_dropShadow_72_20"/>
<feBlend mode="normal" in="SourceGraphic" in2="effect1_dropShadow_72_20" result="shape"/>
</filter>
<filter id="filter1_f_72_20" x="-976.199" y="243.875" width="1978.09" height="1942.17" filterUnits="userSpaceOnUse" color-interpolation-filters="sRGB">
<feFlood flood-opacity="0" result="BackgroundImageFix"/>
<feBlend mode="normal" in="SourceGraphic" in2="BackgroundImageFix" result="shape"/>
<feGaussianBlur stdDeviation="250" result="effect1_foregroundBlur_72_20"/>
</filter>
<linearGradient id="paint0_linear_72_20" x1="473.5" y1="0" x2="473.5" y2="469" gradientUnits="userSpaceOnUse">
<stop/>
<stop offset="0.483754" stop-opacity="0.967509"/>
<stop offset="1" stop-opacity="0"/>
</linearGradient>
<clipPath id="clip0_72_20">
<rect width="939" height="989" fill="white" transform="translate(4)"/>
</clipPath>
</defs>
</svg>
