<svg width="1080" height="1188" viewBox="0 0 1080 1188" fill="none" xmlns="http://www.w3.org/2000/svg">
<path d="M110.035 0.693848L110.035 5815.77" stroke="#B3B3B3" stroke-opacity="0.3" stroke-width="1.35981"/>
<path d="M221.694 0.690674L221.694 5815.76" stroke="#B3B3B3" stroke-opacity="0.3" stroke-width="1.35981"/>
<path d="M333.355 0.69165L333.355 5815.76" stroke="#B3B3B3" stroke-opacity="0.3" stroke-width="1.35981"/>
<path d="M445.014 0.692383L445.014 5815.76" stroke="#B3B3B3" stroke-opacity="0.3" stroke-width="1.35981"/>
<path d="M556.707 0.692383L556.707 5815.76" stroke="#B3B3B3" stroke-opacity="0.3" stroke-width="1.35981"/>
<path d="M668.391 0.692139L668.391 5815.76" stroke="#B3B3B3" stroke-opacity="0.3" stroke-width="1.35981"/>
<path d="M780.051 0.692871L780.051 5815.77" stroke="#B3B3B3" stroke-opacity="0.3" stroke-width="1.35981"/>
<path d="M891.71 0.694092L891.71 5815.77" stroke="#B3B3B3" stroke-opacity="0.3" stroke-width="1.35981"/>
<path d="M1003.4 0.69043L1003.4 5815.76" stroke="#B3B3B3" stroke-opacity="0.3" stroke-width="1.35981"/>
<path d="M-4245.29 0.692871L2343.47 0.692871" stroke="#B3B3B3" stroke-opacity="0.3" stroke-width="1.35981"/>
<path d="M-4245.28 99.251L2343.48 99.251" stroke="#B3B3B3" stroke-opacity="0.3" stroke-width="1.35981"/>
<path d="M-4245.29 197.814L2343.47 197.814" stroke="#B3B3B3" stroke-opacity="0.3" stroke-width="1.35981"/>
<path d="M-4245.3 296.373L2343.46 296.373" stroke="#B3B3B3" stroke-opacity="0.3" stroke-width="1.35981"/>
<path d="M-4245.27 394.934L2343.49 394.934" stroke="#B3B3B3" stroke-opacity="0.3" stroke-width="1.35981"/>
<path d="M-4245.28 493.493L2343.48 493.493" stroke="#B3B3B3" stroke-opacity="0.3" stroke-width="1.35981"/>
<path d="M-4245.28 592.055L2343.48 592.055" stroke="#B3B3B3" stroke-opacity="0.3" stroke-width="1.35981"/>
<path d="M-4245.28 690.615L2343.48 690.615" stroke="#B3B3B3" stroke-opacity="0.3" stroke-width="1.35981"/>
<path d="M-4245.29 789.177L2343.47 789.177" stroke="#B3B3B3" stroke-opacity="0.3" stroke-width="1.35981"/>
<path d="M-4245.3 887.737L2343.46 887.737" stroke="#B3B3B3" stroke-opacity="0.3" stroke-width="1.35981"/>
<path d="M-4245.29 986.299L2343.47 986.299" stroke="#B3B3B3" stroke-opacity="0.3" stroke-width="1.35981"/>
<path d="M-4245.27 1084.86H2343.49" stroke="#B3B3B3" stroke-opacity="0.3" stroke-width="1.35981"/>
<path d="M-4245.27 1183.42H2343.49" stroke="#B3B3B3" stroke-opacity="0.3" stroke-width="1.35981"/>
</svg>
